<mxfile host="Electron" agent="Mozilla/5.0 (X11; Linux x86_64) AppleWebKit/537.36 (KHTML, like Gecko) draw.io/26.0.16 Chrome/132.0.6834.196 Electron/34.2.0 Safari/537.36" version="26.0.16" pages="2">
  <diagram name="Erstes Projekt erstellen" id="uEDydqXntA3x0pn-GXCd">
    <mxGraphModel dx="683" dy="455" grid="1" gridSize="10" guides="1" tooltips="1" connect="1" arrows="1" fold="1" page="1" pageScale="1" pageWidth="1169" pageHeight="827" math="0" shadow="0">
      <root>
        <mxCell id="0" />
        <mxCell id="1" parent="0" />
        <mxCell id="t_amQLvZFwb-QiX7LJer-1" value="" style="strokeWidth=1;shadow=0;dashed=0;align=center;html=1;shape=mxgraph.mockup.containers.browserWindow;rSize=0;strokeColor=#666666;strokeColor2=#008cff;strokeColor3=#c4c4c4;mainText=,;recursiveResize=0;" parent="1" vertex="1">
          <mxGeometry x="9" y="14" width="1150" height="800" as="geometry" />
        </mxCell>
        <mxCell id="t_amQLvZFwb-QiX7LJer-2" value="Projekt erst..." style="strokeWidth=1;shadow=0;dashed=0;align=center;html=1;shape=mxgraph.mockup.containers.anchor;fontSize=17;fontColor=#666666;align=left;whiteSpace=wrap;" parent="t_amQLvZFwb-QiX7LJer-1" vertex="1">
          <mxGeometry x="60" y="12" width="110" height="26" as="geometry" />
        </mxCell>
        <mxCell id="t_amQLvZFwb-QiX7LJer-3" value="https://sensor-administration.ahb.bfh.ch" style="strokeWidth=1;shadow=0;dashed=0;align=center;html=1;shape=mxgraph.mockup.containers.anchor;rSize=0;fontSize=17;fontColor=#666666;align=left;" parent="t_amQLvZFwb-QiX7LJer-1" vertex="1">
          <mxGeometry x="130" y="60" width="250" height="26" as="geometry" />
        </mxCell>
        <mxCell id="t_amQLvZFwb-QiX7LJer-4" value="&lt;font style=&quot;font-size: 40px;&quot;&gt;Willkommen!&lt;/font&gt;" style="text;html=1;align=center;verticalAlign=middle;whiteSpace=wrap;rounded=0;" parent="t_amQLvZFwb-QiX7LJer-1" vertex="1">
          <mxGeometry x="430" y="210" width="290" height="60" as="geometry" />
        </mxCell>
        <mxCell id="t_amQLvZFwb-QiX7LJer-5" value="&lt;font style=&quot;font-size: 20px;&quot;&gt;Beginnen wir mit dem Anlegen eines ersten Projekts.&lt;/font&gt;" style="text;html=1;align=center;verticalAlign=middle;whiteSpace=wrap;rounded=0;" parent="t_amQLvZFwb-QiX7LJer-1" vertex="1">
          <mxGeometry x="330" y="270" width="490" height="20" as="geometry" />
        </mxCell>
        <mxCell id="t_amQLvZFwb-QiX7LJer-6" value="" style="rounded=0;whiteSpace=wrap;html=1;" parent="t_amQLvZFwb-QiX7LJer-1" vertex="1">
          <mxGeometry y="110" width="1150" height="50" as="geometry" />
        </mxCell>
        <mxCell id="t_amQLvZFwb-QiX7LJer-10" value="" style="rounded=0;whiteSpace=wrap;html=1;" parent="t_amQLvZFwb-QiX7LJer-1" vertex="1">
          <mxGeometry x="455" y="340" width="240" height="30" as="geometry" />
        </mxCell>
        <mxCell id="t_amQLvZFwb-QiX7LJer-12" value="" style="rounded=0;whiteSpace=wrap;html=1;" parent="t_amQLvZFwb-QiX7LJer-1" vertex="1">
          <mxGeometry x="455" y="430" width="245" height="190" as="geometry" />
        </mxCell>
        <mxCell id="t_amQLvZFwb-QiX7LJer-20" value="&lt;font style=&quot;font-size: 14px;&quot;&gt;Projekt erstellen&lt;/font&gt;" style="rounded=1;html=1;shadow=0;dashed=0;whiteSpace=wrap;fontSize=10;fillColor=#666666;align=center;strokeColor=#4D4D4D;fontColor=#ffffff;" parent="t_amQLvZFwb-QiX7LJer-1" vertex="1">
          <mxGeometry x="455" y="640" width="135" height="30" as="geometry" />
        </mxCell>
        <mxCell id="t_amQLvZFwb-QiX7LJer-21" value="&lt;font style=&quot;font-size: 16px;&quot;&gt;&lt;i&gt;Name&lt;/i&gt;&lt;/font&gt;" style="text;html=1;align=center;verticalAlign=middle;whiteSpace=wrap;rounded=0;" parent="t_amQLvZFwb-QiX7LJer-1" vertex="1">
          <mxGeometry x="460" y="340" width="60" height="30" as="geometry" />
        </mxCell>
        <mxCell id="t_amQLvZFwb-QiX7LJer-22" value="&lt;font style=&quot;font-size: 16px;&quot;&gt;&lt;i&gt;Beschreibung&lt;/i&gt;&lt;/font&gt;" style="text;html=1;align=center;verticalAlign=middle;whiteSpace=wrap;rounded=0;" parent="t_amQLvZFwb-QiX7LJer-1" vertex="1">
          <mxGeometry x="455" y="430" width="115" height="30" as="geometry" />
        </mxCell>
        <mxCell id="t_amQLvZFwb-QiX7LJer-15" value="" style="dashed=0;align=center;fontSize=12;shape=rect;fillColor=#ffffff;strokeColor=#cccccc;" parent="t_amQLvZFwb-QiX7LJer-1" vertex="1">
          <mxGeometry x="10" y="120" width="160" height="30" as="geometry" />
        </mxCell>
        <mxCell id="t_amQLvZFwb-QiX7LJer-16" value="&lt;i&gt;Neues Projekt&lt;/i&gt;" style="text;fontColor=#000000;verticalAlign=middle;spacingLeft=13;fontSize=14;html=1;whiteSpace=wrap;align=left;" parent="t_amQLvZFwb-QiX7LJer-15" vertex="1">
          <mxGeometry width="160" height="30" as="geometry" />
        </mxCell>
        <mxCell id="t_amQLvZFwb-QiX7LJer-17" value="" style="shape=rect;fillColor=none;strokeColor=#cccccc;resizeHeight=1;" parent="t_amQLvZFwb-QiX7LJer-15" vertex="1">
          <mxGeometry x="1" width="40" height="30" relative="1" as="geometry">
            <mxPoint x="-40" as="offset" />
          </mxGeometry>
        </mxCell>
        <mxCell id="t_amQLvZFwb-QiX7LJer-18" value="" style="dashed=0;html=1;shape=mxgraph.gmdl.triangle;fillColor=#cccccc;strokeColor=none;" parent="t_amQLvZFwb-QiX7LJer-17" vertex="1">
          <mxGeometry x="0.5" y="0.5" width="10" height="5" relative="1" as="geometry">
            <mxPoint x="-5" y="-2.5" as="offset" />
          </mxGeometry>
        </mxCell>
        <mxCell id="UbdWDSxR-446dYVReHxN-1" value="" style="rounded=0;whiteSpace=wrap;html=1;" parent="t_amQLvZFwb-QiX7LJer-1" vertex="1">
          <mxGeometry x="455" y="385" width="240" height="30" as="geometry" />
        </mxCell>
        <mxCell id="UbdWDSxR-446dYVReHxN-2" value="&lt;font style=&quot;font-size: 16px;&quot;&gt;&lt;i&gt;KÃ¼rzel&lt;/i&gt;&lt;/font&gt;" style="text;html=1;align=center;verticalAlign=middle;whiteSpace=wrap;rounded=0;" parent="t_amQLvZFwb-QiX7LJer-1" vertex="1">
          <mxGeometry x="460" y="385" width="60" height="30" as="geometry" />
        </mxCell>
        <mxCell id="t_amQLvZFwb-QiX7LJer-26" value="" style="swimlane;shape=rect;strokeColor=#CCCCCC;fillColor=#ffffff;fontColor=#000000;fontStyle=0;childLayout=stackLayout;horizontal=1;startSize=0;horizontalStack=0;resizeParent=1;resizeParentMax=0;resizeLast=0;collapsible=0;marginBottom=0;whiteSpace=wrap;html=1;shadow=1;" parent="1" vertex="1">
          <mxGeometry x="1000" y="130" width="150" height="120" as="geometry" />
        </mxCell>
        <mxCell id="t_amQLvZFwb-QiX7LJer-27" value="Hallo, Max!" style="text;strokeColor=#CCCCCC;align=left;verticalAlign=middle;spacingLeft=10;spacingRight=10;overflow=hidden;points=[[0,0.5],[1,0.5]];portConstraint=eastwest;rotatable=0;whiteSpace=wrap;html=1;shape=mxgraph.bootstrap.topButton;rSize=3;fillColor=none;fontSize=14;fontColor=inherit;" parent="t_amQLvZFwb-QiX7LJer-26" vertex="1">
          <mxGeometry width="150" height="40" as="geometry" />
        </mxCell>
        <mxCell id="t_amQLvZFwb-QiX7LJer-28" value="" style="text;strokeColor=#CCCCCC;align=left;verticalAlign=middle;spacingLeft=10;spacingRight=10;overflow=hidden;points=[[0,0.5],[1,0.5]];portConstraint=eastwest;rotatable=0;whiteSpace=wrap;html=1;shape=mxgraph.bootstrap.topButton;rSize=3;fillColor=none;fontSize=14;fontColor=inherit;" parent="t_amQLvZFwb-QiX7LJer-27" vertex="1">
          <mxGeometry x="1" width="40" height="40" relative="1" as="geometry">
            <mxPoint x="-40" as="offset" />
          </mxGeometry>
        </mxCell>
        <mxCell id="t_amQLvZFwb-QiX7LJer-29" value="" style="shape=triangle;direction=south;fillColor=#CCCCCC;strokeColor=none;perimeter=none;sketch=0;" parent="t_amQLvZFwb-QiX7LJer-28" vertex="1">
          <mxGeometry x="0.5" y="0.5" width="10" height="5" relative="1" as="geometry">
            <mxPoint x="-5" y="-2.5" as="offset" />
          </mxGeometry>
        </mxCell>
        <mxCell id="t_amQLvZFwb-QiX7LJer-30" value="" style="text;strokeColor=none;align=left;verticalAlign=middle;spacingLeft=10;spacingRight=10;overflow=hidden;points=[[0,0.5],[1,0.5]];portConstraint=eastwest;rotatable=0;whiteSpace=wrap;html=1;rSize=5;fillColor=none;fontColor=inherit;fontSize=14;" parent="t_amQLvZFwb-QiX7LJer-26" vertex="1">
          <mxGeometry y="40" width="150" height="10" as="geometry" />
        </mxCell>
        <mxCell id="t_amQLvZFwb-QiX7LJer-31" value="Einstellungen" style="text;strokeColor=none;align=left;verticalAlign=middle;spacingLeft=10;spacingRight=10;overflow=hidden;points=[[0,0.5],[1,0.5]];portConstraint=eastwest;rotatable=0;whiteSpace=wrap;html=1;rSize=5;fillColor=none;fontColor=inherit;fontSize=14;" parent="t_amQLvZFwb-QiX7LJer-26" vertex="1">
          <mxGeometry y="50" width="150" height="30" as="geometry" />
        </mxCell>
        <mxCell id="t_amQLvZFwb-QiX7LJer-32" value="Logout" style="text;strokeColor=none;align=left;verticalAlign=middle;spacingLeft=10;spacingRight=10;overflow=hidden;points=[[0,0.5],[1,0.5]];portConstraint=eastwest;rotatable=0;whiteSpace=wrap;html=1;rSize=5;fillColor=none;fontColor=inherit;fontSize=14;" parent="t_amQLvZFwb-QiX7LJer-26" vertex="1">
          <mxGeometry y="80" width="150" height="30" as="geometry" />
        </mxCell>
        <mxCell id="t_amQLvZFwb-QiX7LJer-34" value="" style="text;strokeColor=none;align=left;verticalAlign=middle;spacingLeft=10;spacingRight=10;overflow=hidden;points=[[0,0.5],[1,0.5]];portConstraint=eastwest;rotatable=0;whiteSpace=wrap;html=1;rSize=5;fillColor=none;fontColor=inherit;fontSize=14;" parent="t_amQLvZFwb-QiX7LJer-26" vertex="1">
          <mxGeometry y="110" width="150" height="10" as="geometry" />
        </mxCell>
      </root>
    </mxGraphModel>
  </diagram>
  <diagram id="uPQ2tpQwAHhflVynVu6m" name="SensorNode Vorlage">
    <mxGraphModel dx="1434" dy="956" grid="1" gridSize="10" guides="1" tooltips="1" connect="1" arrows="1" fold="1" page="1" pageScale="1" pageWidth="1169" pageHeight="827" math="0" shadow="0">
      <root>
        <mxCell id="0" />
        <mxCell id="1" parent="0" />
        <mxCell id="e9bn6GCosOqhRM9a-Rtq-1" value="&lt;span style=&quot;color: rgb(255, 255, 255); font-family: Helvetica; font-size: 14px; font-style: normal; font-variant-ligatures: normal; font-variant-caps: normal; font-weight: 400; letter-spacing: normal; orphans: 2; text-align: center; text-indent: 0px; text-transform: none; widows: 2; word-spacing: 0px; -webkit-text-stroke-width: 0px; white-space: normal; background-color: rgb(251, 251, 251); text-decoration-thickness: initial; text-decoration-style: initial; text-decoration-color: initial; display: inline !important; float: none;&quot;&gt;Projekt erstellen&lt;/span&gt;" style="strokeWidth=1;shadow=0;dashed=0;align=center;html=1;shape=mxgraph.mockup.containers.browserWindow;rSize=0;strokeColor=#666666;strokeColor2=#008cff;strokeColor3=#c4c4c4;mainText=,;recursiveResize=0;" parent="1" vertex="1">
          <mxGeometry x="10" y="10" width="1150" height="800" as="geometry" />
        </mxCell>
        <mxCell id="e9bn6GCosOqhRM9a-Rtq-2" value="Internet of S.." style="strokeWidth=1;shadow=0;dashed=0;align=center;html=1;shape=mxgraph.mockup.containers.anchor;fontSize=17;fontColor=#666666;align=left;whiteSpace=wrap;" parent="e9bn6GCosOqhRM9a-Rtq-1" vertex="1">
          <mxGeometry x="60" y="12" width="110" height="26" as="geometry" />
        </mxCell>
        <mxCell id="e9bn6GCosOqhRM9a-Rtq-3" value="https://sensor-administration.ahb.bfh.ch" style="strokeWidth=1;shadow=0;dashed=0;align=center;html=1;shape=mxgraph.mockup.containers.anchor;rSize=0;fontSize=17;fontColor=#666666;align=left;" parent="e9bn6GCosOqhRM9a-Rtq-1" vertex="1">
          <mxGeometry x="130" y="60" width="250" height="26" as="geometry" />
        </mxCell>
        <mxCell id="e9bn6GCosOqhRM9a-Rtq-6" value="" style="rounded=0;whiteSpace=wrap;html=1;" parent="e9bn6GCosOqhRM9a-Rtq-1" vertex="1">
          <mxGeometry y="110" width="1150" height="50" as="geometry" />
        </mxCell>
        <mxCell id="e9bn6GCosOqhRM9a-Rtq-24" value="" style="dashed=0;align=center;fontSize=12;shape=rect;fillColor=#ffffff;strokeColor=#cccccc;" parent="e9bn6GCosOqhRM9a-Rtq-1" vertex="1">
          <mxGeometry x="980" y="120" width="160" height="30" as="geometry" />
        </mxCell>
        <mxCell id="e9bn6GCosOqhRM9a-Rtq-25" value="Hallo, Max!" style="text;fontColor=#000000;verticalAlign=middle;spacingLeft=13;fontSize=14;html=1;whiteSpace=wrap;align=left;" parent="e9bn6GCosOqhRM9a-Rtq-24" vertex="1">
          <mxGeometry width="160" height="30" as="geometry" />
        </mxCell>
        <mxCell id="e9bn6GCosOqhRM9a-Rtq-26" value="" style="shape=rect;fillColor=none;strokeColor=#cccccc;resizeHeight=1;" parent="e9bn6GCosOqhRM9a-Rtq-24" vertex="1">
          <mxGeometry x="1" width="40" height="30" relative="1" as="geometry">
            <mxPoint x="-40" as="offset" />
          </mxGeometry>
        </mxCell>
        <mxCell id="e9bn6GCosOqhRM9a-Rtq-27" value="" style="dashed=0;html=1;shape=mxgraph.gmdl.triangle;fillColor=#cccccc;strokeColor=none;" parent="e9bn6GCosOqhRM9a-Rtq-26" vertex="1">
          <mxGeometry x="0.5" y="0.5" width="10" height="5" relative="1" as="geometry">
            <mxPoint x="-5" y="-2.5" as="offset" />
          </mxGeometry>
        </mxCell>
        <mxCell id="e9bn6GCosOqhRM9a-Rtq-12" value="" style="dashed=0;align=center;fontSize=12;shape=rect;fillColor=#ffffff;strokeColor=#cccccc;" parent="e9bn6GCosOqhRM9a-Rtq-1" vertex="1">
          <mxGeometry x="10" y="120" width="160" height="30" as="geometry" />
        </mxCell>
        <mxCell id="e9bn6GCosOqhRM9a-Rtq-13" value="IoS" style="text;fontColor=#000000;verticalAlign=middle;spacingLeft=13;fontSize=14;html=1;whiteSpace=wrap;align=left;" parent="e9bn6GCosOqhRM9a-Rtq-12" vertex="1">
          <mxGeometry width="160" height="30" as="geometry" />
        </mxCell>
        <mxCell id="e9bn6GCosOqhRM9a-Rtq-14" value="" style="shape=rect;fillColor=none;strokeColor=#cccccc;resizeHeight=1;" parent="e9bn6GCosOqhRM9a-Rtq-12" vertex="1">
          <mxGeometry x="1" width="40" height="30" relative="1" as="geometry">
            <mxPoint x="-40" as="offset" />
          </mxGeometry>
        </mxCell>
        <mxCell id="e9bn6GCosOqhRM9a-Rtq-15" value="" style="dashed=0;html=1;shape=mxgraph.gmdl.triangle;fillColor=#cccccc;strokeColor=none;" parent="e9bn6GCosOqhRM9a-Rtq-14" vertex="1">
          <mxGeometry x="0.5" y="0.5" width="10" height="5" relative="1" as="geometry">
            <mxPoint x="-5" y="-2.5" as="offset" />
          </mxGeometry>
        </mxCell>
        <mxCell id="MtCAHURZBvGgJlXVjHFc-1" value="&lt;font style=&quot;font-size: 30px;&quot;&gt;Neue Vorlage: SensorNode&lt;/font&gt;" style="text;strokeColor=none;fillColor=none;html=1;fontSize=24;fontStyle=1;verticalAlign=middle;align=left;" parent="e9bn6GCosOqhRM9a-Rtq-1" vertex="1">
          <mxGeometry x="325" y="220" width="400" height="40" as="geometry" />
        </mxCell>
        <mxCell id="7bgZhC1MNqCQYSVxTkIL-2" value="&lt;i&gt;Name der Vorlage&lt;/i&gt;" style="html=1;shadow=0;dashed=0;shape=mxgraph.bootstrap.rrect;rSize=5;strokeColor=#CED4DA;html=1;whiteSpace=wrap;fillColor=#FFFFFF;fontColor=#7D868C;align=left;spacing=15;fontSize=14;" parent="e9bn6GCosOqhRM9a-Rtq-1" vertex="1">
          <mxGeometry x="325" y="280" width="220" height="40" as="geometry" />
        </mxCell>
        <mxCell id="7bgZhC1MNqCQYSVxTkIL-6" value="Internet of Soils" style="html=1;shadow=0;dashed=0;shape=mxgraph.bootstrap.rrect;rSize=5;strokeColor=#CED4DA;html=1;whiteSpace=wrap;fillColor=#FFFFFF;fontColor=#7D868C;align=left;spacing=15;fontSize=14;" parent="e9bn6GCosOqhRM9a-Rtq-1" vertex="1">
          <mxGeometry x="565" y="280" width="250" height="40" as="geometry" />
        </mxCell>
        <mxCell id="7bgZhC1MNqCQYSVxTkIL-7" value="" style="shape=triangle;direction=south;fillColor=#343A40;strokeColor=none;perimeter=none;" parent="7bgZhC1MNqCQYSVxTkIL-6" vertex="1">
          <mxGeometry x="1" y="0.5" width="7" height="3" relative="1" as="geometry">
            <mxPoint x="-97" y="1" as="offset" />
          </mxGeometry>
        </mxCell>
        <mxCell id="7bgZhC1MNqCQYSVxTkIL-8" value="" style="shape=triangle;direction=north;fillColor=#343A40;strokeColor=none;perimeter=none;" parent="7bgZhC1MNqCQYSVxTkIL-6" vertex="1">
          <mxGeometry x="1" y="0.5" width="7" height="3" relative="1" as="geometry">
            <mxPoint x="-97" y="-4" as="offset" />
          </mxGeometry>
        </mxCell>
        <mxCell id="7bgZhC1MNqCQYSVxTkIL-9" value="Projekt" style="html=1;shadow=0;dashed=0;shape=mxgraph.bootstrap.rightButton;strokeColor=#CED4DA;gradientColor=inherit;fontColor=inherit;fillColor=#E9ECEF;rSize=5;perimeter=none;whiteSpace=wrap;resizeHeight=1;fontSize=14;align=left;spacing=15;" parent="7bgZhC1MNqCQYSVxTkIL-6" vertex="1">
          <mxGeometry x="1" width="80" height="40" relative="1" as="geometry">
            <mxPoint x="-80" as="offset" />
          </mxGeometry>
        </mxCell>
        <mxCell id="7bgZhC1MNqCQYSVxTkIL-10" value="Sensoren" style="text;strokeColor=none;fillColor=none;html=1;fontSize=20;fontStyle=1;verticalAlign=middle;align=left;" parent="e9bn6GCosOqhRM9a-Rtq-1" vertex="1">
          <mxGeometry x="325" y="330" width="100" height="40" as="geometry" />
        </mxCell>
        <mxCell id="7bgZhC1MNqCQYSVxTkIL-11" value="" style="html=1;verticalLabelPosition=bottom;align=center;labelBackgroundColor=#ffffff;verticalAlign=top;strokeWidth=1;strokeColor=#000000;shadow=0;dashed=0;shape=mxgraph.ios7.icons.add;fontColor=default;" parent="e9bn6GCosOqhRM9a-Rtq-1" vertex="1">
          <mxGeometry x="435" y="340" width="20" height="20" as="geometry" />
        </mxCell>
        <mxCell id="7bgZhC1MNqCQYSVxTkIL-12" value="TMP36" style="html=1;shadow=0;dashed=0;shape=mxgraph.bootstrap.rrect;rSize=5;strokeColor=#CED4DA;html=1;whiteSpace=wrap;fillColor=#FFFFFF;fontColor=#7D868C;align=left;spacing=15;fontSize=14;" parent="e9bn6GCosOqhRM9a-Rtq-1" vertex="1">
          <mxGeometry x="345" y="380" width="120" height="30" as="geometry" />
        </mxCell>
        <mxCell id="7bgZhC1MNqCQYSVxTkIL-14" value="Integer" style="html=1;shadow=0;dashed=0;shape=mxgraph.bootstrap.rrect;rSize=5;strokeColor=#CED4DA;html=1;whiteSpace=wrap;fillColor=#FFFFFF;fontColor=#7D868C;align=left;spacing=15;fontSize=14;" parent="e9bn6GCosOqhRM9a-Rtq-1" vertex="1">
          <mxGeometry x="485" y="380" width="180" height="30" as="geometry" />
        </mxCell>
        <mxCell id="7bgZhC1MNqCQYSVxTkIL-15" value="" style="shape=triangle;direction=south;fillColor=#343A40;strokeColor=none;perimeter=none;" parent="7bgZhC1MNqCQYSVxTkIL-14" vertex="1">
          <mxGeometry x="1" y="0.5" width="7" height="3" relative="1" as="geometry">
            <mxPoint x="-97" y="1" as="offset" />
          </mxGeometry>
        </mxCell>
        <mxCell id="7bgZhC1MNqCQYSVxTkIL-16" value="" style="shape=triangle;direction=north;fillColor=#343A40;strokeColor=none;perimeter=none;" parent="7bgZhC1MNqCQYSVxTkIL-14" vertex="1">
          <mxGeometry x="1" y="0.5" width="7" height="3" relative="1" as="geometry">
            <mxPoint x="-97" y="-4" as="offset" />
          </mxGeometry>
        </mxCell>
        <mxCell id="7bgZhC1MNqCQYSVxTkIL-17" value="Datentyp" style="html=1;shadow=0;dashed=0;shape=mxgraph.bootstrap.rightButton;strokeColor=#CED4DA;gradientColor=inherit;fontColor=inherit;fillColor=#E9ECEF;rSize=5;perimeter=none;whiteSpace=wrap;resizeHeight=1;fontSize=14;align=left;spacing=15;" parent="7bgZhC1MNqCQYSVxTkIL-14" vertex="1">
          <mxGeometry x="1" width="80" height="30" relative="1" as="geometry">
            <mxPoint x="-80" as="offset" />
          </mxGeometry>
        </mxCell>
        <mxCell id="7bgZhC1MNqCQYSVxTkIL-18" value="Â°C" style="html=1;shadow=0;dashed=0;shape=mxgraph.bootstrap.rrect;rSize=5;strokeColor=#CED4DA;html=1;whiteSpace=wrap;fillColor=#FFFFFF;fontColor=#7D868C;align=left;spacing=15;fontSize=14;" parent="e9bn6GCosOqhRM9a-Rtq-1" vertex="1">
          <mxGeometry x="685" y="380" width="140" height="30" as="geometry" />
        </mxCell>
        <mxCell id="7bgZhC1MNqCQYSVxTkIL-19" value="" style="shape=triangle;direction=south;fillColor=#343A40;strokeColor=none;perimeter=none;" parent="7bgZhC1MNqCQYSVxTkIL-18" vertex="1">
          <mxGeometry x="1" y="0.5" width="7" height="3" relative="1" as="geometry">
            <mxPoint x="-97" y="1" as="offset" />
          </mxGeometry>
        </mxCell>
        <mxCell id="7bgZhC1MNqCQYSVxTkIL-20" value="" style="shape=triangle;direction=north;fillColor=#343A40;strokeColor=none;perimeter=none;" parent="7bgZhC1MNqCQYSVxTkIL-18" vertex="1">
          <mxGeometry x="1" y="0.5" width="7" height="3" relative="1" as="geometry">
            <mxPoint x="-97" y="-4" as="offset" />
          </mxGeometry>
        </mxCell>
        <mxCell id="7bgZhC1MNqCQYSVxTkIL-21" value="Einheit" style="html=1;shadow=0;dashed=0;shape=mxgraph.bootstrap.rightButton;strokeColor=#CED4DA;gradientColor=inherit;fontColor=inherit;fillColor=#E9ECEF;rSize=5;perimeter=none;whiteSpace=wrap;resizeHeight=1;fontSize=14;align=left;spacing=15;" parent="7bgZhC1MNqCQYSVxTkIL-18" vertex="1">
          <mxGeometry x="1" width="80" height="30" relative="1" as="geometry">
            <mxPoint x="-80" as="offset" />
          </mxGeometry>
        </mxCell>
        <mxCell id="7bgZhC1MNqCQYSVxTkIL-22" value="&lt;i&gt;Sensorname&lt;/i&gt;" style="html=1;shadow=0;dashed=0;shape=mxgraph.bootstrap.rrect;rSize=5;strokeColor=#CED4DA;html=1;whiteSpace=wrap;fillColor=#FFFFFF;fontColor=#7D868C;align=left;spacing=15;fontSize=14;" parent="e9bn6GCosOqhRM9a-Rtq-1" vertex="1">
          <mxGeometry x="345" y="430" width="120" height="30" as="geometry" />
        </mxCell>
        <mxCell id="7bgZhC1MNqCQYSVxTkIL-23" value="" style="html=1;shadow=0;dashed=0;shape=mxgraph.bootstrap.rrect;rSize=5;strokeColor=#CED4DA;html=1;whiteSpace=wrap;fillColor=#FFFFFF;fontColor=#7D868C;align=left;spacing=15;fontSize=14;" parent="e9bn6GCosOqhRM9a-Rtq-1" vertex="1">
          <mxGeometry x="485" y="430" width="180" height="30" as="geometry" />
        </mxCell>
        <mxCell id="7bgZhC1MNqCQYSVxTkIL-24" value="" style="shape=triangle;direction=south;fillColor=#343A40;strokeColor=none;perimeter=none;" parent="7bgZhC1MNqCQYSVxTkIL-23" vertex="1">
          <mxGeometry x="1" y="0.5" width="7" height="3" relative="1" as="geometry">
            <mxPoint x="-97" y="1" as="offset" />
          </mxGeometry>
        </mxCell>
        <mxCell id="7bgZhC1MNqCQYSVxTkIL-25" value="" style="shape=triangle;direction=north;fillColor=#343A40;strokeColor=none;perimeter=none;" parent="7bgZhC1MNqCQYSVxTkIL-23" vertex="1">
          <mxGeometry x="1" y="0.5" width="7" height="3" relative="1" as="geometry">
            <mxPoint x="-97" y="-4" as="offset" />
          </mxGeometry>
        </mxCell>
        <mxCell id="7bgZhC1MNqCQYSVxTkIL-26" value="Datentyp" style="html=1;shadow=0;dashed=0;shape=mxgraph.bootstrap.rightButton;strokeColor=#CED4DA;gradientColor=inherit;fontColor=inherit;fillColor=#E9ECEF;rSize=5;perimeter=none;whiteSpace=wrap;resizeHeight=1;fontSize=14;align=left;spacing=15;" parent="7bgZhC1MNqCQYSVxTkIL-23" vertex="1">
          <mxGeometry x="1" width="80" height="30" relative="1" as="geometry">
            <mxPoint x="-80" as="offset" />
          </mxGeometry>
        </mxCell>
        <mxCell id="7bgZhC1MNqCQYSVxTkIL-27" value="" style="html=1;shadow=0;dashed=0;shape=mxgraph.bootstrap.rrect;rSize=5;strokeColor=#CED4DA;html=1;whiteSpace=wrap;fillColor=#FFFFFF;fontColor=#7D868C;align=left;spacing=15;fontSize=14;" parent="e9bn6GCosOqhRM9a-Rtq-1" vertex="1">
          <mxGeometry x="685" y="430" width="140" height="30" as="geometry" />
        </mxCell>
        <mxCell id="7bgZhC1MNqCQYSVxTkIL-28" value="" style="shape=triangle;direction=south;fillColor=#343A40;strokeColor=none;perimeter=none;" parent="7bgZhC1MNqCQYSVxTkIL-27" vertex="1">
          <mxGeometry x="1" y="0.5" width="7" height="3" relative="1" as="geometry">
            <mxPoint x="-97" y="1" as="offset" />
          </mxGeometry>
        </mxCell>
        <mxCell id="7bgZhC1MNqCQYSVxTkIL-29" value="" style="shape=triangle;direction=north;fillColor=#343A40;strokeColor=none;perimeter=none;" parent="7bgZhC1MNqCQYSVxTkIL-27" vertex="1">
          <mxGeometry x="1" y="0.5" width="7" height="3" relative="1" as="geometry">
            <mxPoint x="-97" y="-4" as="offset" />
          </mxGeometry>
        </mxCell>
        <mxCell id="7bgZhC1MNqCQYSVxTkIL-30" value="Einheit" style="html=1;shadow=0;dashed=0;shape=mxgraph.bootstrap.rightButton;strokeColor=#CED4DA;gradientColor=inherit;fontColor=inherit;fillColor=#E9ECEF;rSize=5;perimeter=none;whiteSpace=wrap;resizeHeight=1;fontSize=14;align=left;spacing=15;" parent="7bgZhC1MNqCQYSVxTkIL-27" vertex="1">
          <mxGeometry x="1" width="80" height="30" relative="1" as="geometry">
            <mxPoint x="-80" as="offset" />
          </mxGeometry>
        </mxCell>
        <mxCell id="7bgZhC1MNqCQYSVxTkIL-31" value="Konfigurationen" style="text;strokeColor=none;fillColor=none;html=1;fontSize=20;fontStyle=1;verticalAlign=middle;align=left;" parent="e9bn6GCosOqhRM9a-Rtq-1" vertex="1">
          <mxGeometry x="325" y="481" width="160" height="40" as="geometry" />
        </mxCell>
        <mxCell id="7bgZhC1MNqCQYSVxTkIL-32" value="" style="html=1;verticalLabelPosition=bottom;align=center;labelBackgroundColor=#ffffff;verticalAlign=top;strokeWidth=1;strokeColor=#000000;shadow=0;dashed=0;shape=mxgraph.ios7.icons.add;fontColor=default;" parent="e9bn6GCosOqhRM9a-Rtq-1" vertex="1">
          <mxGeometry x="495" y="491" width="20" height="20" as="geometry" />
        </mxCell>
        <mxCell id="7bgZhC1MNqCQYSVxTkIL-39" value="Firmware" style="text;strokeColor=none;fillColor=none;html=1;fontSize=20;fontStyle=1;verticalAlign=middle;align=left;" parent="e9bn6GCosOqhRM9a-Rtq-1" vertex="1">
          <mxGeometry x="325" y="590" width="160" height="40" as="geometry" />
        </mxCell>
        <mxCell id="7bgZhC1MNqCQYSVxTkIL-40" value="https://gitlab.ti.bfh.ch/.." style="html=1;shadow=0;dashed=0;shape=mxgraph.bootstrap.rrect;rSize=5;strokeColor=#CED4DA;html=1;whiteSpace=wrap;fillColor=#FFFFFF;fontColor=#7D868C;align=left;spacing=15;fontSize=14;" parent="e9bn6GCosOqhRM9a-Rtq-1" vertex="1">
          <mxGeometry x="325" y="640" width="265" height="30" as="geometry" />
        </mxCell>
        <mxCell id="7bgZhC1MNqCQYSVxTkIL-41" value="" style="shape=triangle;direction=south;fillColor=#343A40;strokeColor=none;perimeter=none;" parent="7bgZhC1MNqCQYSVxTkIL-40" vertex="1">
          <mxGeometry x="1" y="0.5" width="7" height="3" relative="1" as="geometry">
            <mxPoint x="-97" y="1" as="offset" />
          </mxGeometry>
        </mxCell>
        <mxCell id="7bgZhC1MNqCQYSVxTkIL-42" value="" style="shape=triangle;direction=north;fillColor=#343A40;strokeColor=none;perimeter=none;" parent="7bgZhC1MNqCQYSVxTkIL-40" vertex="1">
          <mxGeometry x="1" y="0.5" width="7" height="3" relative="1" as="geometry">
            <mxPoint x="-97" y="-4" as="offset" />
          </mxGeometry>
        </mxCell>
        <mxCell id="7bgZhC1MNqCQYSVxTkIL-43" value="Repository" style="html=1;shadow=0;dashed=0;shape=mxgraph.bootstrap.rightButton;strokeColor=#CED4DA;gradientColor=inherit;fontColor=inherit;fillColor=#E9ECEF;rSize=5;perimeter=none;whiteSpace=wrap;resizeHeight=1;fontSize=14;align=left;spacing=15;" parent="7bgZhC1MNqCQYSVxTkIL-40" vertex="1">
          <mxGeometry x="1" width="89" height="30" relative="1" as="geometry">
            <mxPoint x="-80" as="offset" />
          </mxGeometry>
        </mxCell>
        <mxCell id="Vhv5-9XJ0209zk_8do2o-6" value="" style="group" vertex="1" connectable="0" parent="e9bn6GCosOqhRM9a-Rtq-1">
          <mxGeometry x="345" y="530" width="120" height="30" as="geometry" />
        </mxCell>
        <mxCell id="7bgZhC1MNqCQYSVxTkIL-33" value="Standort" style="html=1;shadow=0;dashed=0;shape=mxgraph.bootstrap.rrect;rSize=5;strokeColor=#CED4DA;strokeWidth=1;fillColor=#E9ECEF;fontColor=#505050;whiteSpace=wrap;align=left;verticalAlign=middle;spacingLeft=10;fontSize=14;" parent="Vhv5-9XJ0209zk_8do2o-6" vertex="1">
          <mxGeometry width="120" height="30" as="geometry" />
        </mxCell>
        <mxCell id="Vhv5-9XJ0209zk_8do2o-1" value="" style="group" vertex="1" connectable="0" parent="Vhv5-9XJ0209zk_8do2o-6">
          <mxGeometry x="103" y="11" width="7" height="8" as="geometry" />
        </mxCell>
        <mxCell id="7bgZhC1MNqCQYSVxTkIL-35" value="" style="shape=triangle;direction=south;fillColor=#343A40;strokeColor=none;perimeter=none;" parent="Vhv5-9XJ0209zk_8do2o-1" vertex="1">
          <mxGeometry y="5" width="7" height="3" as="geometry" />
        </mxCell>
        <mxCell id="7bgZhC1MNqCQYSVxTkIL-36" value="" style="shape=triangle;direction=north;fillColor=#343A40;strokeColor=none;perimeter=none;" parent="Vhv5-9XJ0209zk_8do2o-1" vertex="1">
          <mxGeometry width="7" height="3" as="geometry" />
        </mxCell>
        <mxCell id="Vhv5-9XJ0209zk_8do2o-7" value="" style="group" vertex="1" connectable="0" parent="e9bn6GCosOqhRM9a-Rtq-1">
          <mxGeometry x="485" y="530" width="125" height="30" as="geometry" />
        </mxCell>
        <mxCell id="Vhv5-9XJ0209zk_8do2o-8" value="Uplink Interval" style="html=1;shadow=0;dashed=0;shape=mxgraph.bootstrap.rrect;rSize=5;strokeColor=#CED4DA;strokeWidth=1;fillColor=#E9ECEF;fontColor=#505050;whiteSpace=wrap;align=left;verticalAlign=middle;spacingLeft=10;fontSize=14;" vertex="1" parent="Vhv5-9XJ0209zk_8do2o-7">
          <mxGeometry width="125.00000000000001" height="30" as="geometry" />
        </mxCell>
        <mxCell id="Vhv5-9XJ0209zk_8do2o-9" value="" style="group" vertex="1" connectable="0" parent="Vhv5-9XJ0209zk_8do2o-7">
          <mxGeometry x="107.29166666666667" y="11" width="7.291666666666667" height="8" as="geometry" />
        </mxCell>
        <mxCell id="Vhv5-9XJ0209zk_8do2o-10" value="" style="shape=triangle;direction=south;fillColor=#343A40;strokeColor=none;perimeter=none;" vertex="1" parent="Vhv5-9XJ0209zk_8do2o-9">
          <mxGeometry y="5" width="7.291666666666667" height="3" as="geometry" />
        </mxCell>
        <mxCell id="Vhv5-9XJ0209zk_8do2o-11" value="" style="shape=triangle;direction=north;fillColor=#343A40;strokeColor=none;perimeter=none;" vertex="1" parent="Vhv5-9XJ0209zk_8do2o-9">
          <mxGeometry width="7.291666666666667" height="3" as="geometry" />
        </mxCell>
        <mxCell id="Vhv5-9XJ0209zk_8do2o-12" value="" style="group" vertex="1" connectable="0" parent="e9bn6GCosOqhRM9a-Rtq-1">
          <mxGeometry x="630" y="530" width="120" height="30" as="geometry" />
        </mxCell>
        <mxCell id="Vhv5-9XJ0209zk_8do2o-13" value="..." style="html=1;shadow=0;dashed=0;shape=mxgraph.bootstrap.rrect;rSize=5;strokeColor=#CED4DA;strokeWidth=1;fillColor=#E9ECEF;fontColor=#505050;whiteSpace=wrap;align=left;verticalAlign=middle;spacingLeft=10;fontSize=14;" vertex="1" parent="Vhv5-9XJ0209zk_8do2o-12">
          <mxGeometry width="120" height="30" as="geometry" />
        </mxCell>
        <mxCell id="Vhv5-9XJ0209zk_8do2o-14" value="" style="group" vertex="1" connectable="0" parent="Vhv5-9XJ0209zk_8do2o-12">
          <mxGeometry x="103" y="11" width="7" height="8" as="geometry" />
        </mxCell>
        <mxCell id="Vhv5-9XJ0209zk_8do2o-15" value="" style="shape=triangle;direction=south;fillColor=#343A40;strokeColor=none;perimeter=none;" vertex="1" parent="Vhv5-9XJ0209zk_8do2o-14">
          <mxGeometry y="5" width="7" height="3" as="geometry" />
        </mxCell>
        <mxCell id="Vhv5-9XJ0209zk_8do2o-16" value="" style="shape=triangle;direction=north;fillColor=#343A40;strokeColor=none;perimeter=none;" vertex="1" parent="Vhv5-9XJ0209zk_8do2o-14">
          <mxGeometry width="7" height="3" as="geometry" />
        </mxCell>
        <mxCell id="G6mVJRlbVDh28uJFw99X-1" value="&lt;font style=&quot;font-size: 14px;&quot;&gt;Vorlage erstellen&lt;/font&gt;" style="rounded=1;html=1;shadow=0;dashed=0;whiteSpace=wrap;fontSize=10;fillColor=#666666;align=center;strokeColor=#4D4D4D;fontColor=#ffffff;" vertex="1" parent="e9bn6GCosOqhRM9a-Rtq-1">
          <mxGeometry x="325" y="700" width="135" height="30" as="geometry" />
        </mxCell>
        <mxCell id="uIZbnI3sm2IPZWhPR3mi-1" value="v1.1" style="html=1;shadow=0;dashed=0;shape=mxgraph.bootstrap.rrect;rSize=5;strokeColor=#CED4DA;html=1;whiteSpace=wrap;fillColor=#FFFFFF;fontColor=#7D868C;align=left;spacing=15;fontSize=14;" vertex="1" parent="e9bn6GCosOqhRM9a-Rtq-1">
          <mxGeometry x="630" y="640" width="160" height="30" as="geometry" />
        </mxCell>
        <mxCell id="uIZbnI3sm2IPZWhPR3mi-2" value="" style="shape=triangle;direction=south;fillColor=#343A40;strokeColor=none;perimeter=none;" vertex="1" parent="uIZbnI3sm2IPZWhPR3mi-1">
          <mxGeometry x="1" y="0.5" width="7" height="3" relative="1" as="geometry">
            <mxPoint x="-97" y="1" as="offset" />
          </mxGeometry>
        </mxCell>
        <mxCell id="uIZbnI3sm2IPZWhPR3mi-3" value="" style="shape=triangle;direction=north;fillColor=#343A40;strokeColor=none;perimeter=none;" vertex="1" parent="uIZbnI3sm2IPZWhPR3mi-1">
          <mxGeometry x="1" y="0.5" width="7" height="3" relative="1" as="geometry">
            <mxPoint x="-97" y="-4" as="offset" />
          </mxGeometry>
        </mxCell>
        <mxCell id="uIZbnI3sm2IPZWhPR3mi-4" value="Git Tag" style="html=1;shadow=0;dashed=0;shape=mxgraph.bootstrap.rightButton;strokeColor=#CED4DA;gradientColor=inherit;fontColor=inherit;fillColor=#E9ECEF;rSize=5;perimeter=none;whiteSpace=wrap;resizeHeight=1;fontSize=14;align=left;spacing=15;" vertex="1" parent="uIZbnI3sm2IPZWhPR3mi-1">
          <mxGeometry x="1" width="80" height="30" relative="1" as="geometry">
            <mxPoint x="-80" as="offset" />
          </mxGeometry>
        </mxCell>
      </root>
    </mxGraphModel>
  </diagram>
</mxfile>
